<?xml version="1.0" encoding="UTF-8"?>
<svg id="Layer_2" xmlns="http://www.w3.org/2000/svg" version="1.1" viewBox="0 0 717.12 195.55">
  <!-- Generator: Adobe Illustrator 29.6.0, SVG Export Plug-In . SVG Version: 2.1.1 Build 207)  -->
  <defs>
    <style>
      .st0 {
        fill: #ba8c4a;
      }
    </style>
  </defs>
  <g id="Layer_1-2">
    <path class="st0" d="M335.27,137.79c-12.31,9.41-28.13,14.39-45.76,14.39h-.71c-22.61,0-40.47-11.41-45.33-28.41-.52-1.81.86-3.62,2.74-3.62l94.63-.23c18.52-.05,33.03-15.85,33.03-35.99,0-16.53-4.56-47.47-35.09-68.9C319.97,1.82,302.75,0,286.94,0c-17.83,0-34.15,4.15-48.52,12.32-14.38,8.18-25.87,19.49-34.17,33.61-8.65,14.7-12.52,38.67-12.52,55.91,0,73.97,61.7,93.7,98.16,93.7,41.53,0,67.89-21.98,68.15-22.2,5.76-5.02,9.19-11.74,9.42-18.44.19-5.61-1.86-10.72-5.92-14.79-7.24-7.24-18.53-8.25-26.26-2.34v.02ZM325.15,80.04c-.89,1.06-2.19,1.67-3.57,1.67l-73.79.21h0c-1.41,0-2.73-.63-3.63-1.72-.9-1.09-1.25-2.52-.96-3.9,2.75-13.45,12.92-23.83,18.68-27.21,7.32-4.29,15.63-6.47,24.7-6.47s15.27,1.67,22.19,6.14c6.86,4.44,15.24,14.92,17.41,27.43.24,1.37-.14,2.77-1.03,3.83v.02Z"/>
    <path class="st0" d="M690.76,27.57c-17.64-17.45-40.65-26.16-69.27-26.18h-.06c-28.62.02-51.64,8.73-69.29,26.18-3,2.92-5.74,6-8.22,9.25-1.26,1.65-3.78,1.6-4.9-.15-3.51-5.45-8.03-10.39-13.56-14.82-14.99-11.74-34.66-17.72-59.46-17.72h-56.13c-13.81,0-25,11.19-25,25v121.55c0,17.19-15.74,13.83-15.74,27.14,0,11.63,5.94,14.46,10.39,14.46h88.03c4.43,0,11.57-6,11.57-13.08,0-5.53-1.6-16.13-21.7-16.13-12.68,0-24.5-10.73-24.5-33.69v-.95c0-4.42,2.42-3.83,6.87-3.83h26.21c7.35,0,33.11.67,39.15-1.9,3.87-1.64,7.22-8.8,10.44-13.18,1.77-2.4,3.53-4.55,5.25-6.45,1.78-1.97,5.05-.82,5.21,1.83,1.54,25.74,10.17,46.6,26.09,62.84,17.65,18.26,40.67,27.28,69.29,27.29h.06c28.62,0,51.63-9.03,69.27-27.29,17.67-18.02,26.36-41.72,26.36-71.46s-8.69-51.53-26.36-68.72h0ZM483.22,82.7c-4.82,4.11-10.88,6.05-18.4,6.05h-24.83c-3.92,0-7.12-3.2-7.12-7.12v-28.11c0-3.92,3.21-7.13,7.13-7.13h24.82c7.52,0,13.8,1.95,18.4,5.56,5.1,3.87,7.51,8.97,7.51,15.25s-2.41,11.36-7.51,15.5h0ZM655.95,136.12c-8.67,9.51-20.19,14.16-34.46,14.17h-.06c-14.27,0-25.8-4.66-34.47-14.17-8.69-9.56-13.05-22.39-13.05-37.93s4.36-28.34,13.05-37.9c8.67-9.55,20.2-14.17,34.47-14.18h.06c14.27,0,25.79,4.63,34.46,14.18,8.7,9.56,13.05,22.37,13.05,37.9s-4.35,28.37-13.05,37.93h0Z"/>
    <path class="st0" d="M159.81,4.14h-7.77c-11.59,0-20.98,9.39-20.98,20.98v55.25c0,2.76-2.24,5-5,5h-32.64c-23.5,0-35.71-18.54-35.71-56.05v-4.2c0-11.59-9.39-20.98-20.98-20.98h-8.65c-11.59,0-20.98,9.39-20.98,20.98v8.78c.31,25.9,6.7,52.72,21.11,66.04,8.68,7.93,18.3,15.04,30.42,19.22,7.16,2.48,18.53,4.23,34.79,4.23h35.12c1.39,0,2.52,1.13,2.52,2.52v1.7c0,4.58-1.82,8.96-5.06,12.2-16.98,16.9-50.09,15.88-67.08,8.06-8.56-3.94-16.5-10.99-21.85-17.18-6.16-7.13-18.4-11.85-29.82-1.28-13.93,12.89-5.16,28.61,4.42,39,14.64,15.85,42.61,27.45,80.99,26.85,27.72-.44,49.69-7.12,67.96-26.96,13.73-14.92,18.67-29.33,19.86-49.13.22-3.58.31-7.33.31-11.29V25.12c0-11.59-9.39-20.98-20.98-20.98Z"/>
  </g>
</svg>