<?xml version="1.0" encoding="UTF-8"?>
<svg id="Layer_2" xmlns="http://www.w3.org/2000/svg" version="1.1" viewBox="0 0 401.75 463.27">
  <!-- Generator: Adobe Illustrator 29.6.0, SVG Export Plug-In . SVG Version: 2.1.1 Build 207)  -->
  <defs>
    <style>
      .st0 {
        fill: #ba8c4a;
      }
    </style>
  </defs>
  <g id="Layer_1-2">
    <path class="st0" d="M401.59,114.85v148.86c0,9.68-7.84,17.54-17.53,17.54h-4.4c-39.31-22.33-87.51-73.99-87.51-154.58,0-4.84-6.29-6.94-9.54-3.35-3.13,3.47-6.36,7.4-9.58,11.8-5.89,8.02-11.85,23.14-19.1,25.67-6.05,2.09-7.98,1.47-16.34,1.9-31.38,1.57-96.7.48-116.18.11-3.58-.08-5.61-.11-5.61-.11-4.1,0-7.42,3.32-7.42,7.42v5.1c0,41.97,21.61,57.8,44.79,57.8,36.74,0,39.67,19.39,39.67,29.51,0,7.48-4.38,14.31-9.62,18.73H17.53c-9.68,0-17.53-7.86-17.53-17.54V92.2c0-5.32,2.42-10.34,6.55-13.68L99.56,3.86c4.74-3.81,11.12-4.89,16.85-2.85l273.54,97.32c6.98,2.49,11.64,9.1,11.64,16.52h0Z"/>
    <path class="st0" d="M43.6,329.94c0,.45-.12.87-.33,1.21l-.09.15s-.04.05-.05.08l-15.96,24.91v21.32c0,1.16-.94,2.1-2.1,2.1h-6.52c-1.16,0-2.1-.94-2.1-2.1v-21.37l-15.79-24.66-.49-.78c-.11-.26-.16-.55-.16-.86,0-1.24.94-2.24,2.1-2.24h6.61c.62,0,1.19.29,1.57.75l.28.42,11.25,18.51,11.09-18.25.57-.87c.37-.36.86-.57,1.4-.57h6.61c1.16,0,2.1,1,2.1,2.26h.01Z"/>
    <path class="st0" d="M100.85,353.71c0,15.05-9.45,27.26-26.26,27.26s-26.26-12.2-26.26-27.26,9.31-27.26,26.25-27.26,26.26,12.21,26.26,27.26h.01ZM89.68,353.71c0-8.91-5.57-16.13-15.1-16.13s-15.1,7.22-15.1,16.13,5.57,16.13,15.1,16.13,15.1-7.22,15.1-16.13Z"/>
    <path class="st0" d="M155.24,358.49c0,18.33-11.22,22.46-21.69,22.46-16.56,0-21.69-10.76-21.69-22.46v-28.7c0-1.16.94-2.1,2.1-2.1h6.52c1.16,0,2.1.94,2.1,2.1v28.77c0,3.33.61,11.26,10.96,11.26s10.96-7.86,10.96-11.26v-28.77c0-1.16.94-2.1,2.1-2.1h6.52c1.16,0,2.1.94,2.1,2.1v28.7h.03-.01Z"/>
    <path class="st0" d="M209.4,377.61c0,1.16-.94,2.1-2.1,2.1h-7.43c-.69,0-1.29-.33-1.69-.85l-.29-.55-8.56-16.15c-.22,0-.44.01-.66.01h-9.48v15.42c0,1.16-.94,2.1-2.1,2.1h-6.52c-1.16,0-2.1-.94-2.1-2.1v-47.81c0-1.16.94-2.1,2.1-2.1h18.03c14.92,0,18.11,9.6,18.11,17.24,0,5.1-1.52,11-6.76,14.4l9,17.01.29.55c.08.22.12.46.12.7h.03v.03ZM179.21,351.96h9.41c5.16,0,7.21-3.15,7.21-7.02s-2.46-6.88-7.33-6.88h-9.29v13.92h0v-.02Z"/>
    <path class="st0" d="M276.7,371.41v6.29c0,1.12-.86,2.03-1.85,2.03h-32.24c-1.16,0-2.1-.94-2.1-2.1v-47.83c0-1.16.94-2.1,2.1-2.1h32.15c1.16,0,1.73.91,1.73,2.03v6.28c0,1.12-.86,2.03-1.85,2.03h-23.41v10.51h21.64c1.16,0,1.73.91,1.73,2.03v6.28c0,1.12-.86,2.03-1.85,2.03h-21.52v10.51h23.74c1.16,0,1.73.91,1.73,2.03v-.04.02Z"/>
    <path class="st0" d="M327.5,344.93c0,7.7-3.46,17.24-18.05,17.24h-9.48v15.42c0,1.16-.94,2.1-2.1,2.1h-6.52c-1.16,0-2.1-.94-2.1-2.1v-47.81c0-1.16.94-2.1,2.1-2.1h18.03c14.92,0,18.11,9.6,18.11,17.24h.01ZM316.6,344.93c0-4.01-2.46-6.88-7.33-6.88h-9.3v13.92h9.41c5.16,0,7.21-3.16,7.21-7.02h0v-.02Z"/>
    <path class="st0" d="M349.33,329.79v47.82c0,1.16-.94,2.1-2.1,2.1h-6.52c-1.16,0-2.1-.94-2.1-2.1v-47.82c0-1.16.94-2.1,2.1-2.1h6.52c1.16,0,2.1.94,2.1,2.1Z"/>
    <path class="st0" d="M372.22,353.71c0,10.64,7.59,16.13,14.89,16.13,4.13,0,8.15-1.49,10.85-2.79.26-.12.52-.24.75-.37.17-.05.36-.07.54-.07,1.16,0,2.1.94,2.1,2.1v7.28c0,.73-.37,1.36-.91,1.73-.04.03-.08.05-.12.07-.08.04-.16.08-.25.13-2.15,1.1-6.85,3.04-12.94,3.04-13.88,0-25.92-9.47-25.92-27.26,0-13.39,7-27.26,25.92-27.26,6.52,0,10.92,1.97,12.95,3.13,0,0,.03,0,.04.01.16.08.29.17.42.24.5.38.83.99.83,1.68v7.06c0,1.16-.94,2.1-2.1,2.1-.26,0-.53-.05-.77-.14-.15-.08-.3-.17-.48-.25-2.49-1.29-6.26-2.71-10.89-2.71-8.62,0-14.89,5.49-14.89,16.13l-.04.03h.02Z"/>
    <path class="st0" d="M46.47,427.24c0,7.7-3.46,17.24-18.05,17.24h-9.48v15.42c0,1.16-.94,2.1-2.1,2.1h-6.52c-1.16,0-2.1-.94-2.1-2.1v-47.82c0-1.16.94-2.1,2.1-2.1h18.03c14.92,0,18.11,9.6,18.11,17.24h0v.02ZM35.56,427.24c0-4.01-2.46-6.88-7.33-6.88h-9.29v13.92h9.41c5.16,0,7.21-3.16,7.21-7.02h0v-.02Z"/>
    <path class="st0" d="M93.76,453.71v6.28c0,1.12-.86,2.03-1.85,2.03h-32.24c-1.16,0-2.1-.94-2.1-2.1v-47.82c0-1.16.94-2.1,2.1-2.1h32.15c1.16,0,1.73.91,1.73,2.03v6.29c0,1.12-.86,2.03-1.85,2.03h-23.41v10.51h21.64c1.16,0,1.73.91,1.73,2.03v6.28c0,1.12-.86,2.03-1.85,2.03h-21.52v10.51h23.74c1.16,0,1.73.91,1.73,2.03v-.05.02Z"/>
    <path class="st0" d="M146,412.1v6.13c0,1.16-.94,2.1-2.1,2.1h-14.46v39.58c0,1.16-.94,2.1-2.1,2.1h-6.52c-1.16,0-2.1-.94-2.1-2.1v-39.58h-14.46c-1.16,0-2.1-.94-2.1-2.1v-6.13c0-1.16.94-2.1,2.1-2.1h39.65c1.16,0,2.1.94,2.1,2.1h-.01Z"/>
    <path class="st0" d="M221.66,436c0,15.05-9.45,27.26-26.26,27.26s-26.26-12.2-26.26-27.26,9.32-27.26,26.26-27.26,26.26,12.21,26.26,27.26ZM210.49,436c0-8.91-5.57-16.13-15.1-16.13s-15.1,7.22-15.1,16.13,5.57,16.13,15.1,16.13,15.1-7.22,15.1-16.13Z"/>
    <path class="st0" d="M279.41,459.91c0,1.16-.95,2.1-2.1,2.1h-7.12c-.85,0-1.58-.5-1.9-1.21l-.13-.37-3.75-10.44h-21.27l-3.8,10.55c-.03.07-.05.14-.07.21-.33.75-1.07,1.27-1.94,1.27h-7.16c-1.16,0-2.1-.94-2.1-2.1,0-.08,0-.17,0-.25l.33-.91,16.9-46.98.28-.75c.37-.61,1.04-1.02,1.8-1.02h12.73c.86,0,1.58.5,1.91,1.23l.11.3,17.11,47.57.08.24c.05.18.08.37.08.58h0v-.02ZM260.54,439.26l-6.77-18.85-6.79,18.85h13.56Z"/>
    <path class="st0" d="M324.97,447.97c0,6.24-2.07,15.3-20.32,15.3-7.68,0-13.02-2.21-15.45-3.46-.01,0-.04,0-.05-.03-.26-.13-.49-.26-.67-.37-.46-.38-.75-.96-.75-1.61v-6.72c0-1.16.94-2.1,2.1-2.1.25,0,.49.04.7.12.17.09.34.19.53.28,2.93,1.49,7.67,3.26,13.59,3.26,8.67,0,9.58-2.36,9.58-4.87,0-8.82-26.27-5.88-26.27-24.56,0-12.23,12.15-14.47,19.61-14.47,6.84,0,12.01,2.11,14.36,3.29.21.11.38.2.55.28.41.3.71.75.82,1.28v7.34c-.2.96-1.04,1.68-2.06,1.68-.29,0-.55-.05-.8-.16h-.01c-.12-.07-.24-.13-.36-.19h-.01c-2.57-1.37-6.68-2.86-12.34-2.86-7.14,0-8.99,1.54-8.99,3.96,0,8.45,26.27,4.63,26.27,24.62h-.03Z"/>
    <path class="st0" d="M347.88,412.1v47.82c0,1.16-.94,2.1-2.1,2.1h-6.52c-1.16,0-2.1-.94-2.1-2.1v-47.82c0-1.16.94-2.1,2.1-2.1h6.52c1.16,0,2.1.94,2.1,2.1Z"/>
    <path class="st0" d="M397.43,447.97c0,6.24-2.07,15.3-20.32,15.3-7.68,0-13.02-2.21-15.45-3.46-.01,0-.04,0-.05-.03-.26-.13-.49-.26-.67-.37-.46-.38-.75-.96-.75-1.61v-6.72c0-1.16.94-2.1,2.1-2.1.25,0,.49.04.7.12.17.09.34.19.53.28,2.93,1.49,7.67,3.26,13.59,3.26,8.67,0,9.58-2.36,9.58-4.87,0-8.82-26.27-5.88-26.27-24.56,0-12.23,12.15-14.47,19.61-14.47,6.84,0,12.01,2.11,14.36,3.29.21.11.38.2.55.28.41.3.71.75.82,1.28v7.34c-.2.96-1.04,1.68-2.06,1.68-.29,0-.55-.05-.81-.16h-.01c-.12-.07-.24-.13-.36-.19h-.01c-2.57-1.37-6.68-2.86-12.34-2.86-7.14,0-8.99,1.54-8.99,3.96,0,8.45,26.27,4.63,26.27,24.62h-.02Z"/>
    <path class="st0" d="M392.44,67.02c0,.33-.27.61-.61.61h-2.16c-.2,0-.38-.09-.5-.24l-.09-.16-2.5-4.71h-2.95v4.49c0,.33-.27.61-.61.61h-1.91c-.33,0-.61-.27-.61-.61v-13.95c0-.33.27-.61.61-.61h5.25c4.35,0,5.28,2.8,5.28,5.02,0,1.49-.44,3.2-1.98,4.19l2.62,4.96.09.16s.04.13.04.2v.02h.02v.02ZM383.64,59.54h2.75c1.51,0,2.11-.92,2.11-2.05s-.72-2.01-2.14-2.01h-2.71v4.07h0Z"/>
    <path class="st0" d="M385.68,76.25c-8.86,0-16.07-7.21-16.07-16.06s7.2-16.07,16.07-16.07,16.07,7.2,16.07,16.07-7.21,16.07-16.07,16.07h0ZM385.68,47.19c-7.16,0-13,5.83-13,13.01s5.83,13.01,13,13.01,13.01-5.83,13.01-13.01-5.84-13.01-13.01-13.01Z"/>
  </g>
</svg>